# xmcd
#
# Track frame offsets:
#  150
#  5581
#  18103
#  30625
#  44401
#  57983
#  70532
#  81763
#  94688
#  110121
#  138763
#  157317
#  184176
#  206478
#  218931
#  230775
#  248857
#
# Disc length: 3599 seconds
#
# Revision: 0
# Processed by: cddbd v1.5.1PL2 Copyright (c) Steve Scherf et al.
# Submitted via: Collectorz.com_Music_Collector 6.9
#
DISCID=ec0e0d11
DTITLE=Various Artist - Martin Scorsese Presents the Blues - The Road to Memphis - A Film by Richard Pearce and Robert Kenner
DYEAR=2003
DGENRE=Blues
TTITLE0=Rev. Gatemouth Moore - Beale Street Ain't Beale Street No More
TTITLE1=Elmore James - (I Believe I'll) Dust My Broom 
TTITLE2=Elmore James - (I Think I'll) Dust My Broom 
TTITLE3=B.B. King - Three O'Clock Blues
TTITLE4=Howlin' Wolf - Moanin' at Midnight
TTITLE5=Rosco Gordon - Rosco's Boogie
TTITLE6=Little Junior's Blue Flames - Mystery Train
TTITLE7=Jackie Brenston - Rocket '88
TTITLE8=B.B. King - Precious Lord
TTITLE9=Bobby Rush - Hoochie Man
TTITLE10=Robert Belfour - Done Got Old
TTITLE11=Bobby Rush - Hen Pecked
TTITLE12=Rev. Charles E. Polk - Medley
TTITLE13=Bobby "Blue" Bland - I Pity the Fool
TTITLE14=Sonny Boy Williamson II - Bring It On Home
TTITLE15=Hubert Sumlin and David Johansen - Killing Floor
TTITLE16=Rosco Gordon - Now You're Gone
EXTD=
EXTT0=
EXTT1=
EXTT2=
EXTT3=
EXTT4=
EXTT5=
EXTT6=
EXTT7=
EXTT8=
EXTT9=
EXTT10=
EXTT11=
EXTT12=
EXTT13=
EXTT14=
EXTT15=
EXTT16=
PLAYORDER=
